inDegrees=no
num_controls=7
num_derivatives=13
num_iterations=172
num_multipliers=7
num_parameters=0
num_slacks=7
num_states=26
objective=5.547078
objective_accelerations=0.670528
objective_balance=0.036802
objective_effort=0.248073
objective_height=4.524455
objective_ligament=0.067220
solver_duration=1903.973025
status=Solve_Succeeded
success=true
DataType=double
version=3
OpenSimVersion=4.4-2022-07-23-0e9fedc
endheader
time	/jointset/ground_pelvis/pelvis_tilt/value	/jointset/ground_pelvis/pelvis_tx/value	/jointset/ground_pelvis/pelvis_ty/value	/jointset/hip_l/hip_flexion_l/value	/jointset/hip_l/hip_adduction_l/value	/jointset/hip_l/hip_rotation_l/value	/jointset/back/lumbar_extension/value	/jointset/patellofemoral_l/patellar_flexion_l/value	/jointset/knee_l/knee_flexion_l/value	/jointset/knee_l/knee_adduction_l/value	/jointset/knee_l/knee_rotation_l/value	/jointset/ankle_l/ankle_angle_l/value	/jointset/subtalar_l/subtalar_angle_l/value	/jointset/ground_pelvis/pelvis_tilt/speed	/jointset/ground_pelvis/pelvis_tx/speed	/jointset/ground_pelvis/pelvis_ty/speed	/jointset/hip_l/hip_flexion_l/speed	/jointset/hip_l/hip_adduction_l/speed	/jointset/hip_l/hip_rotation_l/speed	/jointset/back/lumbar_extension/speed	/jointset/patellofemoral_l/patellar_flexion_l/speed	/jointset/knee_l/knee_flexion_l/speed	/jointset/knee_l/knee_adduction_l/speed	/jointset/knee_l/knee_rotation_l/speed	/jointset/ankle_l/ankle_angle_l/speed	/jointset/subtalar_l/subtalar_angle_l/speed	/forceset/tau_hip_flexion_l	/forceset/tau_hip_adduction_l	/forceset/tau_hip_rotation_l	/forceset/tau_knee_flexion_l	/forceset/tau_ankle_angle_l	/forceset/tau_subtalar_angle_l	/forceset/tau_lumbar_extension	lambda_cid13_p0	lambda_cid13_p1	lambda_cid13_p2	lambda_cid13_p3	lambda_cid13_p4	lambda_cid13_p5	lambda_cid14_p0	/jointset/ground_pelvis/pelvis_tilt/accel	/jointset/ground_pelvis/pelvis_tx/accel	/jointset/ground_pelvis/pelvis_ty/accel	/jointset/hip_l/hip_flexion_l/accel	/jointset/hip_l/hip_adduction_l/accel	/jointset/hip_l/hip_rotation_l/accel	/jointset/back/lumbar_extension/accel	/jointset/patellofemoral_l/patellar_flexion_l/accel	/jointset/knee_l/knee_flexion_l/accel	/jointset/knee_l/knee_adduction_l/accel	/jointset/knee_l/knee_rotation_l/accel	/jointset/ankle_l/ankle_angle_l/accel	/jointset/subtalar_l/subtalar_angle_l/accel	gamma_cid13_p0	gamma_cid13_p1	gamma_cid13_p2	gamma_cid13_p3	gamma_cid13_p4	gamma_cid13_p5	gamma_cid14_p0
1.5	-0.2663299142804303	0.03579296637283311	0.7744127196468988	0.9371715840289528	-0.4438176938548032	-0.2183970749184292	-0.216112704405183	0.849493758343397	0.8494937583433846	-0.1168348723515461	-0.1519369760073531	0.2431257606712089	0.03868493810678911	0.4107867205939315	0.1407199298724614	0.4918668224471248	-2.014753005612341	0.2397212249244366	-0.7378183195011518	0.3343385252216842	-2.132393592967531	-2.132393592967498	-0.1627760792542811	0.1114260824710119	-0.7102054248821318	-0.1283627801199538	-0.1258386653363109	0.03445133492992302	-0.0113232841059651	-0.222532189923776	-0.01542269010210811	0.03667573851044384	0.1351303019097215	-36.48707512586935	-13.69372094385809	6.592183666514979	-2.657107264099947	-520.8020912180224	-67.38347903231447	-22.95181746066829	0.377724103916508	0.473159109255145	-0.5225315843679463	-0.9793914143162432	0.6574993850687523	-0.2833017825108706	1.245996461773538	-1.431570451872454	-1.431570451872457	0.1128521436450893	0.1801023502932045	-0.6373862208863166	0.5149413581234797	5.856765487869919e-07	-5.69517074281422e-08	-4.183359090819752e-06	-2.571035627812568e-07	8.4693569532689e-07	7.119577904292247e-07	5.003563287983136e-07
1.51	-0.262203071506005	0.03722368248313761	0.7793042608502805	0.9169765161225397	-0.4413890704514871	-0.2257849030933193	-0.2127081758538709	0.8281005569290885	0.8281005569290808	-0.1184622788853494	-0.1508129184041377	0.2359923250759087	0.03742516599573008	0.4145232596906225	0.1454031289675243	0.4863353073999796	-2.023970977486628	0.2459820172835114	-0.7396457617590493	0.3465190156864986	-2.145943553632378	-2.145943553632343	-0.162696060495612	0.1133781282434421	-0.7163747286583001	-0.1235694151452079	-0.121334295521795	0.03325798183740872	-0.01116121368413834	-0.2192350309618409	-0.01328579455203421	0.03634669093156141	0.1312859379099272	-35.63607730440594	-13.70291315581662	6.597181789156499	-2.827640796878682	-517.3416767972624	-67.40080085416851	-23.94281299609655	0.3629132490132986	0.4628357701746733	-0.5842049277880553	-0.8494635660169665	0.6077145243094803	-0.1167292557942061	1.196849935706947	-1.271340301993684	-1.271340301993387	-0.04317014709950893	0.2008850527539791	-0.5906637073292781	0.465316858784672	6.076367000977209e-07	1.025971068560503e-07	-4.111543495049106e-06	-2.196010587045885e-07	8.593910157602257e-07	8.53951418044826e-07	5.062837971267212e-07
1.52	-0.2580406044533181	0.03870061767650129	0.7841373382106105	0.8966979757989758	-0.4388983700519837	-0.2331878584524623	-0.2091832874785367	0.8065809296224904	0.8065809296224888	-0.1200886346093817	-0.1496697144707897	0.2288004041925771	0.0362140840927454	0.4179115762460283	0.1499637464842941	0.4801740538368258	-2.031447489042197	0.2521366241618925	-0.7408437563515481	0.3584104900261759	-2.157678771425339	-2.157678771425302	-0.1625659173000373	0.1152553484973134	-0.7219024824883561	-0.1186247385050813	-0.1168299257073034	0.03206462874488687	-0.01099914326231098	-0.2159378719999079	-0.01114889900196108	0.03601764335266847	0.1274415739101133	-34.78617779070841	-13.71263185773389	6.603087857717074	-3.047541496421149	-513.9275472851452	-67.48711747726209	-24.9331479096796	0.3080795956594551	0.4486427935965198	-0.6484792875696733	-0.631099350572444	0.6362622889299954	-0.1574122494311231	1.188193236746157	-1.068621877495252	-1.068621877495252	0.1228770310261938	0.1651372465814098	-0.5090762316638853	0.5452036911996363	6.293072532917653e-07	2.619980183793452e-07	-4.044882295764205e-06	-1.837851981855108e-07	8.764149762202938e-07	9.926083666884524e-07	5.124695549032866e-07
1.53	-0.2538459454110475	0.04022247339087922	0.7889057311322949	0.8763532872274721	-0.4363467735282269	-0.240600105114253	-0.2055411133844232	0.7849530477976785	0.7849530477976739	-0.1217132402428784	-0.1485083584354605	0.2215563902579857	0.03505306301214695	0.420958484981004	0.1543791810069213	0.4734044814812081	-2.037187668787432	0.2581558160509494	-0.741502376448162	0.3699662982948655	-2.167579191280385	-2.167579191280369	-0.1623441576527499	0.1170073620987322	-0.7267889393028533	-0.1135618534987164	-0.1123817366132943	0.03100722104765485	-0.01075564228976522	-0.2126129159626445	-0.009142415420097902	0.03539686269465456	0.1236131339243754	-34.00040400682322	-13.56291371555674	6.559003708034127	-3.098260099523551	-510.6562208442462	-67.31093309100892	-25.92151103694302	0.2938103332261479	0.4337351646087075	-0.7060215612482029	-0.5000017865651296	0.5812296011511151	-0.004084832112321962	1.130570046691418	-0.9030961786399068	-0.903096178643123	-0.02660801535351574	0.1782144724969254	-0.4617136157219806	0.4898566305358359	6.506701084868324e-07	4.212417832191863e-07	-3.983697642745409e-06	-1.497613964463732e-07	8.982931167087649e-07	1.127720093924355e-06	5.189297452185195e-07
1.54	-0.2496226545172642	0.04178763172708596	0.7936034632600849	0.8559602919585017	-0.4337356886931283	-0.2480157375654776	-0.2017851221226708	0.763235692946488	0.7632356929464842	-0.1233353149692868	-0.1473298860530041	0.2142668551133733	0.0339432759266483	0.4236379465483588	0.1586242708500578	0.4660418950579773	-2.041108828535312	0.2640342864303099	-0.7415209142382083	0.3811739235539974	-2.175573376700658	-2.175573376700664	-0.1620597358828049	0.1186786179231425	-0.7310067244925236	-0.1083779394851151	-0.1079335475193027	0.02994981335041776	-0.01051214131719925	-0.2092879599253836	-0.007135931838235074	0.03477608203663338	0.1197846939386233	-33.21428526898178	-13.4155971637492	6.517979519699351	-3.204495679795419	-507.4139197526605	-67.20422386441849	-26.90734520723506	0.2345901621352968	0.4145738576983864	-0.7670821010922919	-0.2672953511015926	0.6081179869906913	-0.0293957881175892	1.118556634834591	-0.6873749905408648	-0.6873749905408648	0.1354094555577002	0.1489856911796922	-0.3753419066984666	0.5694094926469085	6.582611663669502e-07	6.590760206478111e-07	-3.78716155890241e-06	-9.457800280344213e-08	8.9892840738447e-07	1.247504919183992e-06	5.181250764641592e-07
1.55	-0.2453743721381748	0.04339441676314557	0.7982247271353732	0.8355368953994106	-0.4310666167976518	-0.2554292700317187	-0.1979191053062179	0.7414478748320334	0.7414478748320307	-0.1249537783079629	-0.1461356655792923	0.2069385632117188	0.03288590103085256	0.4259487475207094	0.1627063158437157	0.4581206050290983	-2.043273268913408	0.2697412862941669	-0.741041917015606	0.3919536451258716	-2.181671036892338	-2.181671036892325	-0.1616619543875339	0.1201839989294105	-0.7345301467353884	-0.1030888932876734	-0.1030965693190058	0.02780375720623544	-0.01025259702991595	-0.2069236039413954	-0.004310078253211927	0.03439571743817883	0.1156738424713354	-32.17482870704075	-13.42759039179528	6.514389465567046	-3.506271926246233	-504.4335911793866	-67.53747546644692	-27.89080603408898	0.2189079542655655	0.4010625797735377	-0.8180213306314693	-0.146372450954688	0.5465084502067896	0.1085971719467261	1.046310726770318	-0.5231809093248134	-0.5231809093219717	-0.01236588922936758	0.1534830208534747	-0.3225696638983434	0.5100660832256864	6.499847186450619e-07	9.874601504069857e-07	-3.434677087370666e-06	-1.501507935831562e-08	8.750882406672068e-07	1.349630487818802e-06	5.089500266078768e-07
1.56	-0.241105065171465	0.04504123080105653	0.8027641043350037	0.8151007836225784	-0.4283415714107127	-0.2628336025868351	-0.1939475651123652	0.7196086362404911	0.7196086362404938	-0.1265691295088294	-0.1449259575524221	0.1995786916314717	0.03188169937701776	0.4278428640722843	0.1666300712203314	0.4496645599263875	-2.04365187208315	0.2752289847229693	-0.7396809320131014	0.4022785990340055	-2.185857472117748	-2.185857472117715	-0.1614373083219114	0.1217761285558028	-0.7373226602109667	-0.09774329109291657	-0.09825959111873452	0.02565770106204373	-0.00999305274259194	-0.2045592479574135	-0.001484224668190827	0.03401535283971074	0.1115629910040284	-31.13305453742523	-13.4394392537709	6.510150718123421	-3.860946791504438	-501.4511676830596	-67.92528532200642	-28.87288625183354	0.1512532779801481	0.382915934289931	-0.8740331158586172	0.08987209056906494	0.5642576999797668	0.1470017678628732	1.02760310208657	-0.3051299972867387	-0.3051299972867407	0.1007823696279709	0.1663354152045403	-0.2291601532411297	0.5807206921099463	5.904737259515096e-07	1.4649136128621e-06	-2.722841665759092e-06	1.203676651790735e-07	7.659371634428255e-07	1.373904781276244e-06	4.748574425059084e-07
1.57	-0.236818999509122	0.04672629300268753	0.8072162810934446	0.7946704342591052	-0.4255624154427748	-0.2702234386798698	-0.1898748717690706	0.6977376926856856	0.6977376926856842	-0.1281800403252333	-0.1437023017890268	0.1921946456557631	0.03093180351255924	0.4293146504772534	0.1703364722293482	0.4406888975083611	-2.042106076057998	0.2805630460520389	-0.7381551623693889	0.4121748725273005	-2.187991762871452	-2.187991762871438	-0.1607546062277203	0.1229573168157958	-0.7393730942183214	-0.09223284296886289	-0.09408908933756398	0.02500571118054036	-0.009681945130374604	-0.2010410437854697	-8.155675648864376e-05	0.03289386262156344	0.1079052056594939	-30.59124384516165	-13.00578626989081	6.393660239787296	-3.613993431051717	-498.6937203700488	-67.40195876642423	-29.85534765264049	0.1367723389314269	0.3577063819515559	-0.9215317618110009	0.2336979410853488	0.5119617795195326	0.1753648444382399	0.9578599083240942	-0.1167316297404214	-0.1167316297431775	0.05089709566951101	0.0941694536158706	-0.1758606915418282	0.5363658694329972	4.669195520433775e-07	2.128703741187137e-06	-1.561817556547736e-06	3.255251860817901e-07	5.501474480845476e-07	1.300864980761978e-06	4.096179405968328e-07
1.58	-0.2325198897792936	0.04844706005395747	0.8115762614362979	0.7742648957724019	-0.4227311225755169	-0.2775940170201047	-0.1857057716037687	0.6758555756202738	0.6758555756202748	-0.1297843475274185	-0.1424668023585955	0.1847935202065689	0.03003704392871719	0.4304516775692679	0.1737710411481217	0.4312252768088755	-2.038689696728966	0.2856563645870676	-0.7358293814531656	0.4215599634355209	-2.188092174238283	-2.188092174238287	-0.1601165854793372	0.1241448619645567	-0.7407385549080431	-0.08671603496961269	-0.08991858755640919	0.02435372129903543	-0.009370837518105645	-0.1975228396135322	0.001321111155213236	0.03177237240341264	0.1042474203149455	-30.0509535534589	-12.57913876226174	6.286593782774876	-3.404254504355143	-495.9871631438648	-66.92607888531464	-30.82840778076932	0.08430141538923983	0.3285495162412778	-0.9716247721504578	0.4639887513448292	0.5161091411715527	0.3070040223650455	0.9253665850716585	0.1016458800879468	0.1016458800879469	0.09184610046634981	0.1676067929581143	-0.09216548971447365	0.5819926671492496	4.019086120289437e-07	2.52370346198597e-06	-9.562642457768896e-07	4.461626050985843e-07	4.27490245274579e-07	1.284197728266098e-06	3.808716186467473e-07
1.59	-0.228211298697947	0.05020089473981852	0.8158392559341627	0.7539028949448722	-0.4198502642600457	-0.2849375373449297	-0.1814454468010013	0.653982744317422	0.6539827443174209	-0.1313826033399167	-0.1412195744601316	0.1773823688271783	0.02919743769191118	0.4311906755284008	0.1769567297436893	0.4213033919588647	-2.033394284646493	0.2904714118291399	-0.7327820158151662	0.4304071056111368	-2.186127799006033	-2.186127799006043	-0.1595166482973591	0.1252776219237003	-0.7413597599922853	-0.08119468545964245	-0.08511677386237085	0.02210567058553467	-0.009180249392688192	-0.1953828382389981	0.004126913717426388	0.03113148468379153	0.1001502891516999	-29.06092684908428	-12.46045411735238	6.252030274445102	-3.622763017151771	-493.5604614749656	-67.17944775927825	-31.77748215781171	0.05729794993357592	0.3077947149652466	-1.012918271367729	0.6097255838613175	0.4575028762156235	0.3178723505832395	0.849704307802143	0.2956936365576608	0.2956936365567966	0.0470912892189433	0.08239894238821795	-0.02719848675100396	0.5385142261238121	4.163492037273814e-07	2.553916201142117e-06	-1.104564161460978e-06	4.520941715559189e-07	4.312271666373087e-07	1.344036076652308e-06	4.016517552124315e-07
